<svg width="24" height="25" viewBox="0 0 24 25" fill="none" xmlns="http://www.w3.org/2000/svg">
<path d="M2.66667 0.5C1.19792 0.5 0 1.69792 0 3.16667V21.8333C0 23.3021 1.19792 24.5 2.66667 24.5H21.3333C22.8021 24.5 24 23.3021 24 21.8333V3.16667C24 1.69792 22.8021 0.5 21.3333 0.5H2.66667ZM16.6667 6.5C17.3333 6.5 17.875 7.04167 17.875 7.70833C17.875 8.375 17.3333 8.91667 16.6667 8.91667C16 8.91667 15.4583 8.375 15.4583 7.70833C15.4583 7.04167 16 6.5 16.6667 6.5ZM8.91667 7.04167H11.0833L14.6667 18.375H12.125L11.4583 16.0833H8.41667L7.75 18.375H5.33333L8.91667 7.04167ZM15.5833 9.95833H17.875V18.375H15.5833V9.95833ZM10 10.0833L8.91667 14.0833H11.0833L10 10.0833Z" fill="black"/>
</svg>
