<svg width="25" height="18" viewBox="0 0 25 18" fill="none" xmlns="http://www.w3.org/2000/svg">
<g clip-path="url(#clip0_546_3221)">
<path d="M6.22367 7.50592C7.61573 7.50592 8.74422 6.40651 8.74422 5.05033C8.74422 3.69414 7.61573 2.59473 6.22367 2.59473C4.83161 2.59473 3.70312 3.69414 3.70312 5.05033C3.70312 6.40651 4.83161 7.50592 6.22367 7.50592Z" stroke="black" stroke-width="0.5" stroke-miterlimit="10"/>
<path d="M5.16406 3.89209L7.18537 3.92684" stroke="black" stroke-width="0.5" stroke-miterlimit="10" stroke-linecap="round"/>
<path d="M4.53125 5.02686H7.74586" stroke="black" stroke-width="0.5" stroke-miterlimit="10" stroke-linecap="round"/>
<path d="M5.16406 6.04639H7.27061" stroke="black" stroke-width="0.5" stroke-miterlimit="10" stroke-linecap="round"/>
<path d="M16.3292 1.78388L15.9883 7.18157L18.3384 7.79547C18.6671 7.88813 18.9959 7.64489 18.9959 7.30898L19.0933 1.83022C19.0933 1.49431 18.3262 1.05416 17.9974 1.14682L16.3292 1.7723V1.78388Z" stroke="black" stroke-miterlimit="10" stroke-linecap="round"/>
<path d="M15.9274 1.80671L8.3901 0.671572C6.39314 0.370414 4.29877 0.752653 2.70364 1.93412C1.02328 3.1735 -0.0239051 5.18895 3.20288 8.10787C3.76301 8.61752 4.18918 9.243 4.43272 9.93798L5.88173 14.0615C6.0522 14.5249 6.44185 14.9071 6.95326 14.9998C7.30638 15.0693 7.74474 15.0808 8.2318 14.8955C8.76757 14.6986 9.10852 14.2005 9.12069 13.6561L9.1694 9.76424C9.1694 9.104 9.65646 8.52485 10.3383 8.36269L15.7082 7.08856L16.0613 1.79512" stroke="black" stroke-miterlimit="10" stroke-linecap="round"/>
<path d="M7.57422 11.0732L7.92734 12.7759" stroke="black" stroke-miterlimit="10" stroke-linecap="round"/>
<path d="M9.82812 9.97314L9.9986 11.5948" stroke="black" stroke-miterlimit="10" stroke-linecap="round"/>
<path d="M7.8418 15.417C7.8418 15.417 10.1066 20.1428 12.7246 15.0811" stroke="black" stroke-miterlimit="10" stroke-linecap="round"/>
<path d="M20.4688 2.80325C20.4688 2.80325 21.0289 1.85344 21.9786 2.46734C21.9786 2.46734 23.2085 3.75305 23.8904 2.38626" stroke="black" stroke-miterlimit="10" stroke-linecap="round"/>
<path d="M20.3242 4.7261C20.3242 4.7261 20.8843 3.77629 21.8341 4.39019C21.8341 4.39019 23.0639 5.67591 23.7458 4.30911" stroke="black" stroke-miterlimit="10" stroke-linecap="round"/>
<path d="M20.4082 6.90334C20.4082 6.90334 20.9683 5.95354 21.9181 6.56744C21.9181 6.56744 23.1479 7.85315 23.8298 6.48636" stroke="black" stroke-miterlimit="10" stroke-linecap="round"/>
</g>
<defs>
<clipPath id="clip0_546_3221">
<rect width="24" height="18" fill="white" transform="translate(0.5)"/>
</clipPath>
</defs>
</svg>
