<svg width="18" height="14" viewBox="0 0 18 14" fill="none" xmlns="http://www.w3.org/2000/svg">
<g clip-path="url(#clip0_505_946)">
<path d="M13.26 5.98C10.6 5.98 9.04999 4.28 8.57999 2.28C8.46999 2.28 8.36999 2.29 8.26999 2.3C7.81999 4.31 6.25999 6.04 3.59999 6.04C3.51999 6.08 3.43999 6.12 3.34999 6.16C3.19999 6.67 3.10999 7.2 3.10999 7.76C3.10999 10.79 5.55999 13.24 8.58999 13.24C11.62 13.24 14.07 10.79 14.07 7.76C14.07 7.13 13.96 6.52 13.76 5.95C13.6 5.96 13.44 5.97 13.28 5.97L13.26 5.98Z" stroke="#050505" stroke-width="0.8" stroke-miterlimit="10"/>
<path d="M14.99 6.94001C15.34 6.96001 15.64 6.72001 15.66 6.40001C15.68 6.08001 15.41 5.81001 15.06 5.79001C14.71 5.77001 14.41 6.01001 14.39 6.33001C14.37 6.65001 14.64 6.92001 14.99 6.94001Z" stroke="#050505" stroke-width="0.5" stroke-miterlimit="10"/>
<path d="M16.58 11.65C16.94 10.47 16.98 9.59002 16.85 8.94002C16.64 7.88002 15.64 7.15002 14.56 7.15002H14.54C14.59 7.34002 14.61 7.50002 14.63 7.67002C14.66 7.67002 14.7 7.67002 14.73 7.68002C15.18 7.88002 15.31 8.55002 15.02 9.19002C14.8 9.67002 14.41 9.98002 14.04 10.02C13.81 10.59 13.76 11.21 13.98 11.8C13.98 11.8 13.98 11.81 13.98 11.82C14.05 12.01 14.16 12.19 14.3 12.33C15.22 13.22 16.27 13.34 16.61 13.35C16.65 13.35 16.67 13.31 16.64 13.27C16.24 12.79 16.56 11.65 16.56 11.65H16.58Z" stroke="#050505" stroke-width="0.5" stroke-miterlimit="10"/>
<path d="M2.13002 7.04C2.13002 7.04 2.23002 7.06 2.28002 7.06C2.63002 7.06 2.92002 6.81 2.92002 6.49C2.92002 6.17 2.64002 5.91 2.29002 5.9C1.94002 5.89 1.65002 6.15 1.65002 6.47C1.65002 6.74 1.85002 6.97 2.13002 7.04Z" stroke="#050505" stroke-width="0.5" stroke-miterlimit="10"/>
<path d="M3.12 9.94001C2.75 9.91001 2.35 9.60001 2.13 9.12001C1.84 8.49001 1.96 7.82001 2.41 7.61001C2.44 7.59001 2.48 7.61001 2.51 7.59001C2.53 7.42001 2.55 7.26001 2.59 7.07001H2.57C1.49 7.07001 0.500003 7.82001 0.300003 8.88001C0.180003 9.53001 0.230003 10.41 0.600003 11.59C0.600003 11.59 0.930003 12.72 0.540003 13.21C0.510003 13.25 0.530003 13.29 0.570003 13.29C0.910003 13.27 1.96 13.14 2.87 12.24C3.01 12.1 3.12 11.92 3.19 11.73C3.19 11.73 3.19 11.72 3.19 11.71C3.4 11.12 3.34 10.5 3.11 9.93001L3.12 9.94001Z" stroke="#050505" stroke-width="0.5" stroke-miterlimit="10"/>
<path d="M2.26001 5.87C2.26001 5.87 2.66001 0.74 8.27001 0.5" stroke="black" stroke-miterlimit="10"/>
<path d="M14.23 5.97C14.23 5.97 13.83 0.74 8.22998 0.5" stroke="black" stroke-miterlimit="10"/>
<path d="M2.72998 5.68001C2.72998 5.68001 1.72998 5.19002 3.31998 6.05002" stroke="#050505" stroke-width="0.5" stroke-miterlimit="10"/>
<path d="M3.58003 5.93001C3.58003 5.93001 2.97003 6.11001 2.59003 5.73001" stroke="#050505" stroke-width="0.6" stroke-miterlimit="10"/>
<path d="M6.16997 8.43C6.55657 8.43 6.86997 8.1166 6.86997 7.73C6.86997 7.3434 6.55657 7.03 6.16997 7.03C5.78337 7.03 5.46997 7.3434 5.46997 7.73C5.46997 8.1166 5.78337 8.43 6.16997 8.43Z" fill="black"/>
<path d="M10.72 8.44001C11.1066 8.44001 11.42 8.12661 11.42 7.74001C11.42 7.35341 11.1066 7.04001 10.72 7.04001C10.3334 7.04001 10.02 7.35341 10.02 7.74001C10.02 8.12661 10.3334 8.44001 10.72 8.44001Z" fill="black"/>
<path d="M7.31 10.45C7.31 10.45 8.55 11.65 9.67 10.45" stroke="black" stroke-width="0.8" stroke-miterlimit="10" stroke-linecap="round"/>
</g>
<defs>
<clipPath id="clip0_505_946">
<rect width="17.16" height="13.64" fill="white"/>
</clipPath>
</defs>
</svg>
