<svg width="25" height="24" viewBox="0 0 25 24" fill="none" xmlns="http://www.w3.org/2000/svg">
<g clip-path="url(#clip0_546_3443)">
<path d="M24.2565 14.1735C23.662 11.857 22.296 10.2577 20.1584 9.3756C18.0208 8.49352 15.9757 8.68516 14.023 9.95063L15.8945 2.15521C15.9422 1.95663 15.9297 1.76223 15.8572 1.57201C15.7848 1.38179 15.6659 1.23153 15.5006 1.12122C13.8632 0.0425993 12.1037 -0.257792 10.2221 0.220048C8.34052 0.69789 6.91024 1.80834 5.93124 3.55141C4.95228 5.29449 4.72294 7.13899 5.24323 9.08494C5.76352 11.0309 6.87489 12.4852 8.57734 13.4481L1.16998 15.6554C0.981303 15.7115 0.826044 15.8197 0.704207 15.9801C0.58237 16.1405 0.516866 16.323 0.507693 16.5274C0.435273 18.2035 0.874155 19.7183 1.82434 21.072C2.77452 22.4256 4.02638 23.3194 5.57991 23.7534C5.87077 23.8348 6.16546 23.8962 6.464 23.9375C6.76253 23.9788 7.06239 23.9996 7.36352 24C9.29728 23.9947 10.9359 23.2664 12.2792 21.8154C13.6226 20.3643 14.2633 18.6306 14.2011 16.6144L19.7369 22.2036C19.8781 22.3461 20.0459 22.4321 20.2402 22.4617C20.4346 22.4913 20.6189 22.4589 20.7932 22.3644C22.22 21.5922 23.2577 20.4389 23.9064 18.9047C24.5551 17.3705 24.6718 15.7934 24.2565 14.1735ZM12.5454 15.7043C11.9194 15.7846 11.358 15.6222 10.861 15.2173C10.3639 14.8123 10.077 14.2833 9.99999 13.6303C9.92307 12.9773 10.0787 12.3916 10.4669 11.8731C10.8551 11.3546 11.3622 11.0552 11.9881 10.9749C12.614 10.8947 13.1755 11.057 13.6725 11.462C14.1695 11.867 14.4565 12.396 14.5334 13.049C14.6103 13.702 14.4547 14.2877 14.0665 14.8061C13.6784 15.3246 13.1713 15.624 12.5454 15.7043Z" fill="#111827"/>
</g>
<defs>
<clipPath id="clip0_546_3443">
<rect width="24" height="24" fill="white" transform="translate(0.5)"/>
</clipPath>
</defs>
</svg>
