<svg width="25" height="22" viewBox="0 0 25 22" fill="none" xmlns="http://www.w3.org/2000/svg">
<path d="M2.5 4.5C2.5 4.5 4.5 7.5 12.5 7.5C20.5 7.5 22.5 4.5 22.5 4.5V14.5C22.5 14.5 20.5 17.5 12.5 17.5C4.5 17.5 2.5 14.5 2.5 14.5V4.5Z" stroke="#333333" stroke-width="2" stroke-linecap="round" stroke-linejoin="round"/>
<path d="M12.5 9.25C15 9.25 17 11 17 13.1875C17 15.375 15 17.125 12.5 17.125C10 17.125 8 15.375 8 13.1875C8 11 10 9.25 12.5 9.25Z" stroke="#333333" stroke-width="2" stroke-linecap="round" stroke-linejoin="round"/>
<path d="M12.5 14.0625C13.0523 14.0625 13.5 13.6707 13.5 13.1875C13.5 12.7043 13.0523 12.3125 12.5 12.3125C11.9477 12.3125 11.5 12.7043 11.5 13.1875C11.5 13.6707 11.9477 14.0625 12.5 14.0625Z" stroke="#333333" stroke-width="2" stroke-linecap="round" stroke-linejoin="round"/>
</svg>
