<svg width="25" height="24" viewBox="0 0 25 24" fill="none" xmlns="http://www.w3.org/2000/svg">
<g clip-path="url(#clip0_546_3280)">
<path d="M2.0625 7.5C1.3125 10.5 1.3125 13.5 2.0625 16.5" stroke="black" stroke-width="2"/>
<path d="M4.4375 9C3.9375 11 3.9375 13 4.4375 15" stroke="black" stroke-width="2"/>
<path d="M16.9375 3H7.9375C7.10907 3 6.4375 3.67157 6.4375 4.5V19.5C6.4375 20.3284 7.10907 21 7.9375 21H16.9375C17.7659 21 18.4375 20.3284 18.4375 19.5V4.5C18.4375 3.67157 17.7659 3 16.9375 3Z" fill="black"/>
<path d="M20.4375 9C20.9375 11 20.9375 13 20.4375 15" stroke="black" stroke-width="2"/>
<path d="M22.8125 7.5C23.5625 10.5 23.5625 13.5 22.8125 16.5" stroke="black" stroke-width="2"/>
<path d="M12.4375 9C13.2616 9 13.9297 8.32843 13.9297 7.5C13.9297 6.67157 13.2616 6 12.4375 6C11.6134 6 10.9453 6.67157 10.9453 7.5C10.9453 8.32843 11.6134 9 12.4375 9Z" fill="white"/>
<path d="M12.4385 8.0625C12.7475 8.0625 12.998 7.81066 12.998 7.5C12.998 7.18934 12.7475 6.9375 12.4385 6.9375C12.1294 6.9375 11.8789 7.18934 11.8789 7.5C11.8789 7.81066 12.1294 8.0625 12.4385 8.0625Z" fill="black"/>
<path d="M12.4375 18.75C14.4978 18.75 16.168 17.0711 16.168 15C16.168 12.9289 14.4978 11.25 12.4375 11.25C10.3772 11.25 8.70703 12.9289 8.70703 15C8.70703 17.0711 10.3772 18.75 12.4375 18.75Z" fill="white"/>
<path d="M12.4375 16.5C13.2616 16.5 13.9297 15.8284 13.9297 15C13.9297 14.1716 13.2616 13.5 12.4375 13.5C11.6134 13.5 10.9453 14.1716 10.9453 15C10.9453 15.8284 11.6134 16.5 12.4375 16.5Z" fill="black"/>
</g>
<defs>
<clipPath id="clip0_546_3280">
<rect width="23.875" height="24" fill="white" transform="translate(0.5)"/>
</clipPath>
</defs>
</svg>
