<svg width="24" height="22" viewBox="0 0 24 22" fill="none" xmlns="http://www.w3.org/2000/svg">
<g clip-path="url(#clip0_546_3707)">
<path d="M21.3891 14.9404C20.9191 14.9404 20.5391 15.3204 20.5391 15.7904V20.4504" stroke="black" stroke-linecap="round" stroke-linejoin="round"/>
<path d="M14.1895 20.4495C14.4395 20.6595 14.6995 20.8695 15.2495 20.8695C16.3095 20.8695 16.3095 20.0195 17.3695 20.0195C18.4295 20.0195 18.3895 20.8695 19.4895 20.8695C20.5895 20.8695 20.5495 20.0195 21.6095 20.0195C22.1595 20.0195 22.4095 20.2295 22.6695 20.4395" stroke="black" stroke-linecap="round" stroke-linejoin="round"/>
<path d="M16.3008 18.3301H20.5308" stroke="black" stroke-linecap="round" stroke-linejoin="round"/>
<path d="M16.3008 16.6396H20.5308" stroke="black" stroke-linecap="round" stroke-linejoin="round"/>
<path d="M17.1508 14.9404C16.6808 14.9404 16.3008 15.3204 16.3008 15.7904V20.4504" stroke="black" stroke-linecap="round" stroke-linejoin="round"/>
<path d="M5.17969 13.3604V8.63043C5.17969 6.45043 6.93969 4.69043 9.10969 4.69043C11.2797 4.69043 13.0397 6.45043 13.0397 8.63043V13.3604" stroke="black" stroke-width="1.5" stroke-linecap="round" stroke-linejoin="round"/>
<path d="M3.60938 15.7304C3.60938 16.1704 3.95938 16.5204 4.39938 16.5204H13.8194C14.2494 16.5204 14.6094 16.1704 14.6094 15.7304V14.9404C14.6094 14.0704 13.9094 13.3604 13.0394 13.3604H5.18938C4.31938 13.3604 3.61937 14.0704 3.61937 14.9404V15.7304H3.60938Z" stroke="black" stroke-width="1.5" stroke-linecap="round" stroke-linejoin="round"/>
<path d="M16.1699 8.62988H16.9599" stroke="black" stroke-width="1.5" stroke-linecap="round" stroke-linejoin="round"/>
<path d="M14.2103 2.71973L13.8203 3.10973" stroke="black" stroke-width="1.5" stroke-linecap="round" stroke-linejoin="round"/>
<path d="M1.25 8.62988H2.04" stroke="black" stroke-width="1.5" stroke-linecap="round" stroke-linejoin="round"/>
<path d="M9.09961 0.75V1.54" stroke="black" stroke-width="1.5" stroke-linecap="round" stroke-linejoin="round"/>
<path d="M3.55078 3.05957L4.11078 3.61957" stroke="black" stroke-width="1.5" stroke-linecap="round" stroke-linejoin="round"/>
<path d="M9.09961 8.62988V13.3599" stroke="black" stroke-width="1.5" stroke-linecap="round" stroke-linejoin="round"/>
</g>
<defs>
<clipPath id="clip0_546_3707">
<rect width="22.66" height="21.37" fill="white" transform="translate(0.5)"/>
</clipPath>
</defs>
</svg>
