<svg width="18" height="15" viewBox="0 0 18 15" fill="none" xmlns="http://www.w3.org/2000/svg">
<g clip-path="url(#clip0_546_3245)">
<path d="M2.34961 5.75H15.2196C15.2196 9.31 14.1496 11.09 8.78961 11.09C3.42961 11.09 2.34961 9.31 2.34961 5.75Z" stroke="#0A0A0A" stroke-linecap="round" stroke-linejoin="round"/>
<path d="M1.99 5.71014H1V4.55014C1 3.97014 1.5 3.39014 1.99 3.39014H15.87C16.37 3.39014 16.86 3.97014 16.86 4.55014V5.71014H13.52" stroke="#0A0A0A" stroke-linecap="round" stroke-linejoin="round"/>
<path d="M5.45922 12.79H10.7392C12.1992 12.79 13.2592 13.36 13.2592 13.67C13.2592 13.98 12.0792 14.23 10.6192 14.23H5.33922C3.87922 14.23 2.69922 13.98 2.69922 13.67C2.69922 13.36 4.00922 12.79 5.46922 12.79H5.45922Z" stroke="#0A0A0A" stroke-linecap="round" stroke-linejoin="round"/>
<path d="M3.94922 2.81V0.5" stroke="#0A0A0A" stroke-linecap="round" stroke-linejoin="round"/>
<path d="M3.94922 0.5H6.25922" stroke="#0A0A0A" stroke-linecap="round" stroke-linejoin="round"/>
<path d="M4.29023 10.71L4.24023 12.62" stroke="#0A0A0A" stroke-linecap="round" stroke-linejoin="round"/>
<path d="M10.8906 11.2998V12.6198" stroke="#0A0A0A" stroke-linecap="round" stroke-linejoin="round"/>
</g>
<defs>
<clipPath id="clip0_546_3245">
<rect width="16.86" height="14.73" fill="white" transform="translate(0.5)"/>
</clipPath>
</defs>
</svg>
