<svg width="19" height="23" viewBox="0 0 19 23" fill="none" xmlns="http://www.w3.org/2000/svg">
<g clip-path="url(#clip0_546_3353)">
<path d="M1.11328 14.4341L3.82857 11.7188C4.18212 11.3652 4.76195 11.3652 5.11551 11.7188L5.29935 11.9026C5.65291 12.2562 5.65291 12.836 5.29935 13.1896L2.58406 15.9049L1.11328 14.4341Z" fill="#050505"/>
<path d="M0.772844 14.6798L2.19413 16.1011C1.82643 16.4688 1.23953 16.4617 0.87891 16.1011L0.779914 16.0021C0.412219 15.6344 0.41929 15.0475 0.779915 14.6869L0.772844 14.6798Z" fill="#050505"/>
<path d="M14.5807 17.2898L14.7307 21.1298L12.6507 21.2098L12.5007 17.3698C12.4807 16.8698 12.8707 16.4498 13.3707 16.4298H13.6307C14.1307 16.3998 14.5507 16.7898 14.5707 17.2898H14.5807Z" fill="#050505"/>
<path d="M14.6096 21.54C14.6296 22.06 14.2296 22.49 13.7096 22.51H13.5696C13.0496 22.54 12.6196 22.13 12.5996 21.62L14.6096 21.54Z" fill="#050505"/>
<path d="M5.64062 10.8598C5.64062 10.8598 7.16063 7.51982 7.31063 4.47982C7.37063 3.32982 7.98062 2.27982 8.94062 1.64982C10.9006 0.369824 14.2106 -0.760175 16.8706 3.47982C17.5606 4.57982 17.8306 5.89982 17.6006 7.17982C17.2506 9.08982 16.1406 11.6898 12.6806 12.2198C12.6806 12.2198 7.50063 13.0398 7.98063 7.64982C7.98063 7.64982 8.34063 3.37982 12.3506 4.25982C12.3506 4.25982 15.6806 4.77982 16.0306 7.93982C16.0306 7.93982 16.9406 11.5898 13.8506 15.7998" stroke="#050505" stroke-linecap="round" stroke-linejoin="round"/>
</g>
<defs>
<clipPath id="clip0_546_3353">
<rect width="17.68" height="22.52" fill="white" transform="translate(0.5)"/>
</clipPath>
</defs>
</svg>
