<svg width="24" height="25" viewBox="0 0 24 25" fill="none" xmlns="http://www.w3.org/2000/svg">
<path d="M8.9844 17C8.9844 17.4968 8.5818 17.9 8.0844 17.9C7.587 17.9 7.1844 17.4968 7.1844 17V8.6C7.1844 8.2082 7.4382 7.8614 7.8114 7.742C8.1864 7.6232 8.5926 7.76 8.8188 8.0798L18.885 22.3022C21.9702 20.1254 24 16.541 24 12.5C24 5.9 18.6 0.5 12 0.5C5.4 0.5 0 5.9 0 12.5C0 19.1 5.4 24.5 12 24.5C13.9152 24.5 15.7236 24.0338 17.334 23.2268L8.9844 11.4296V17ZM14.9844 8C14.9844 7.5032 15.387 7.1 15.8844 7.1C16.3818 7.1 16.7844 7.5032 16.7844 8V16.304L14.9844 13.7678V8Z" fill="black"/>
</svg>
